<?xml version="1.0" encoding="utf-8"?>
<!-- Uploaded to: SVG Repo, www.svgrepo.com, Generator: SVG Repo Mixer Tools -->
<svg fill="#000000" width="800px" height="800px" viewBox="0 0 32 32" version="1.1" xmlns="http://www.w3.org/2000/svg">
<title>skull</title>
<path d="M16 1c-7.5 0-15 3.75-15 9.375 0 3.75 2.813 5.625 2.813 9.375 0 2.813-0.937 2.813-0.937 4.688 0 0.937 3.001 2 5.625 2.813v3.75h15.001v-3.75c0 0 5.66-1.747 5.625-2.813-0.058-1.747-0.937-1.875-0.937-4.688 0-1.875 2.852-5.714 2.813-9.375-0.002-5.625-7.501-9.375-15.001-9.375zM10.374 12.249c2.071 0 3.75 1.679 3.75 3.75s-1.679 3.75-3.75 3.75-3.75-1.679-3.75-3.75c0-2.071 1.679-3.75 3.75-3.75zM21.625 12.249c2.071 0 3.75 1.679 3.75 3.75s-1.679 3.75-3.75 3.75-3.75-1.679-3.75-3.75c0-2.071 1.679-3.75 3.75-3.75zM16 18.812c0.937 0 2.813 3.75 2.813 4.688 0 1.875 0 1.875-0.937 1.875h-3.75c-0.937 0-0.937 0-0.937-1.875-0.001-0.938 1.874-4.688 2.812-4.688z"></path>
</svg>